<?xml version="1.0" encoding="UTF-8"?>
<svg width="160px" height="111px" viewBox="0 0 160 111" version="1.1" xmlns="http://www.w3.org/2000/svg" xmlns:xlink="http://www.w3.org/1999/xlink">
    <title>编组</title>
    <g id="页面-1" stroke="none" stroke-width="1" fill="none" fill-rule="evenodd">
        <g id="编组" transform="translate(0.000000, 0.958000)">
            <rect id="矩形" stroke="#585C63" stroke-width="3" fill="#FFFFFF" x="1.5" y="1.5" width="157" height="107" rx="5"></rect>
            <path d="M56.675,40.525 L44.229,52.969 C43.584,53.614 43.584,54.659 44.229,55.303 C44.873,55.947 45.918,55.947 46.562,55.303 L59.008,42.859 C59.653,42.214 59.653,41.17 59.009,40.525 C58.364,39.881 57.319,39.881 56.675,40.525" id="Fill-45" fill="#585C63"></path>
            <path d="M59.008,52.972 L46.563,40.526 C45.919,39.882 44.874,39.882 44.23,40.526 C43.585,41.171 43.585,42.215 44.23,42.86 L56.675,55.305 C57.319,55.949 58.364,55.949 59.008,55.305 C59.653,54.661 59.653,53.616 59.008,52.972" id="Fill-46" fill="#585C63"></path>
            <path d="M112.775,40.525 L100.328,52.969 C99.684,53.614 99.684,54.659 100.328,55.303 C100.973,55.947 102.017,55.947 102.662,55.303 L115.108,42.859 C115.752,42.214 115.752,41.17 115.108,40.525 C114.464,39.881 113.419,39.881 112.775,40.525" id="Fill-47" fill="#585C63"></path>
            <path d="M115.108,52.972 L102.664,40.526 C102.019,39.882 100.975,39.882 100.33,40.526 C99.686,41.171 99.686,42.215 100.33,42.86 L112.775,55.305 C113.419,55.949 114.464,55.949 115.108,55.305 C115.752,54.661 115.752,53.616 115.108,52.972" id="Fill-48" fill="#585C63"></path>
            <path d="M108.355,69.155 L108.355,81.438 C108.355,83.869 106.385,85.838 103.955,85.838 L101.582,85.838 C99.152,85.838 97.182,83.869 97.182,81.438 L97.182,69.155" id="Fill-49" fill="#EA8FA2"></path>
            <polyline id="Fill-50" fill="#E67A94" points="104.698 69.796 102.768 84.096 100.839 69.796 104.698 69.796"></polyline>
            <path d="M42.375,70.516 L116.962,70.516 C117.721,70.516 118.337,69.901 118.337,69.141 C118.337,68.382 117.721,67.766 116.962,67.766 L42.375,67.766 C41.616,67.766 41,68.382 41,69.141 C41,69.901 41.616,70.516 42.375,70.516" id="Fill-51" fill="#585C63"></path>
            <circle id="椭圆形" fill="#585C63" cx="11" cy="10" r="4"></circle>
            <circle id="椭圆形" fill="#585C63" cx="23" cy="10" r="4"></circle>
            <circle id="椭圆形" fill="#585C63" cx="35" cy="10" r="4"></circle>
        </g>
    </g>
</svg>